<?xml version="1.0" encoding="utf-8"?>
<!-- Generator: Adobe Illustrator 26.2.1, SVG Export Plug-In . SVG Version: 6.00 Build 0)  -->
<svg version="1.1" id="Layer_1" xmlns="http://www.w3.org/2000/svg" xmlns:xlink="http://www.w3.org/1999/xlink" x="0px" y="0px"
	 viewBox="0 0 24 24" style="enable-background:new 0 0 24 24;" xml:space="preserve">
<style type="text/css">
	.st0{fill:#FFFFFF;}
</style>
<path class="st0" d="M20.1,10.8V10h-1.4l-0.6,0c-0.5,0-0.9,0.3-1,0.7V10h-1.6v4.8h1.6v-2.6c0-0.5,0.4-0.9,0.9-0.9h0.6v3.5h1.6v-2.6
	c0-0.5,0.4-0.9,0.9-0.9h0.8V10l-0.6,0C20.6,10,20.3,10.4,20.1,10.8z M9,10.1l-0.8,2.8l-0.8-2.8H5.7l1.7,4.8h1.4l1.7-4.8H9z
	 M2.5,10.1V9.8c0-0.3,0.2-0.5,0.5-0.5h1V8H2.7C1.7,8,1,8.8,1,9.7v0.4H0.1v1.3H1v3.5h1.6v-3.5H4v3.5h1.6v-4.8H2.5z M12.7,10.1h-0.2
	c-1.3,0-2.3,1-2.3,2.3v0.3c0,1.3,1,2.3,2.3,2.3h0.4c0.9,0,1.6-0.5,1.9-1.3l-1.4-0.4c0,0-0.2,0.5-0.7,0.5c-0.6,0-1-0.4-1-0.8
	c0,0,0-0.1,0-0.1H15v-0.5C15,11.1,14,10.1,12.7,10.1z M11.7,12c0-0.4,0.4-0.8,0.8-0.8h0.1c0.4,0,0.8,0.3,0.8,0.8H11.7z M23,13.1
	c-0.5,0-1,0.4-1,1c0,0.5,0.4,1,1,1c0.5,0,1-0.4,1-1C24,13.5,23.6,13.1,23,13.1z"/>
</svg>
