<?xml version="1.0" encoding="UTF-8"?>
<svg xmlns="http://www.w3.org/2000/svg" xmlns:xlink="http://www.w3.org/1999/xlink" viewBox="0 0 50 50" width="50px" height="50px">
<g id="surface6434243">
<path style="fill-rule:nonzero;fill:rgb(100%,100%,100%);fill-opacity:1;stroke-width:10;stroke-linecap:butt;stroke-linejoin:round;stroke:rgb(100%,100%,100%);stroke-opacity:1;stroke-miterlimit:10;" d="M 116.956019 10.323413 C 141.612766 10.323413 161.676589 30.387236 161.676589 55.043982 L 161.676589 116.956019 C 161.676589 141.612766 141.612766 161.676589 116.956019 161.676589 L 55.043982 161.676589 C 30.387236 161.676589 10.323413 141.612766 10.323413 116.956019 L 10.323413 55.043982 C 10.323413 30.387236 30.387236 10.323413 55.043982 10.323413 Z M 17.205688 55.043982 L 17.205688 116.956019 C 17.205688 137.901456 34.098545 154.794313 55.043982 154.794313 L 116.956019 154.794313 C 137.901456 154.794313 154.794313 137.901456 154.794313 116.956019 L 154.794313 55.043982 C 154.794313 34.098545 137.901456 17.205688 116.956019 17.205688 L 55.043982 17.205688 C 34.098545 17.205688 17.205688 34.098545 17.205688 55.043982 Z M 134.161707 44.720569 C 134.161707 48.517196 131.076059 51.602844 127.279432 51.602844 C 123.482805 51.602844 120.397157 48.517196 120.397157 44.720569 C 120.397157 40.923942 123.482805 37.838294 127.279432 37.838294 C 131.076059 37.838294 134.161707 40.923942 134.161707 44.720569 Z M 123.838295 86.000001 C 123.838295 106.86012 106.86012 123.838295 86.000001 123.838295 C 65.139881 123.838295 48.161707 106.86012 48.161707 86.000001 C 48.161707 65.139881 65.139881 48.161707 86.000001 48.161707 C 106.86012 48.161707 123.838295 65.139881 123.838295 86.000001 Z M 55.043982 86.000001 C 55.043982 103.134591 68.865411 116.956019 86.000001 116.956019 C 103.134591 116.956019 116.956019 103.134591 116.956019 86.000001 C 116.956019 68.865411 103.134591 55.043982 86.000001 55.043982 C 68.865411 55.043982 55.043982 68.865411 55.043982 86.000001 Z M 55.043982 86.000001 " transform="matrix(0.274709,0,0,0.274709,1.375,1.375)"/>
<path style=" stroke:none;fill-rule:nonzero;fill:rgb(100%,100%,100%);fill-opacity:1;" d="M 16.496094 4.210938 C 9.722656 4.210938 4.210938 9.722656 4.210938 16.496094 L 4.210938 33.503906 C 4.210938 40.277344 9.722656 45.789062 16.496094 45.789062 L 33.503906 45.789062 C 40.277344 45.789062 45.789062 40.277344 45.789062 33.503906 L 45.789062 16.496094 C 45.789062 9.722656 40.277344 4.210938 33.503906 4.210938 Z M 16.496094 6.101562 L 33.503906 6.101562 C 39.257812 6.101562 43.898438 10.742188 43.898438 16.496094 L 43.898438 33.503906 C 43.898438 39.257812 39.257812 43.898438 33.503906 43.898438 L 16.496094 43.898438 C 10.742188 43.898438 6.101562 39.257812 6.101562 33.503906 L 6.101562 16.496094 C 6.101562 10.742188 10.742188 6.101562 16.496094 6.101562 Z M 36.339844 11.769531 C 35.296875 11.769531 34.449219 12.617188 34.449219 13.660156 C 34.449219 14.703125 35.296875 15.550781 36.339844 15.550781 C 37.382812 15.550781 38.230469 14.703125 38.230469 13.660156 C 38.230469 12.617188 37.382812 11.769531 36.339844 11.769531 Z M 25 14.605469 C 19.269531 14.605469 14.605469 19.269531 14.605469 25 C 14.605469 30.730469 19.269531 35.394531 25 35.394531 C 30.730469 35.394531 35.394531 30.730469 35.394531 25 C 35.394531 19.269531 30.730469 14.605469 25 14.605469 Z M 25 16.496094 C 29.707031 16.496094 33.503906 20.292969 33.503906 25 C 33.503906 29.707031 29.707031 33.503906 25 33.503906 C 20.292969 33.503906 16.496094 29.707031 16.496094 25 C 16.496094 20.292969 20.292969 16.496094 25 16.496094 Z M 25 16.496094 "/>
</g>
</svg>
