<?xml version="1.0" encoding="utf-8"?>
<!-- Generator: Adobe Illustrator 26.2.1, SVG Export Plug-In . SVG Version: 6.00 Build 0)  -->
<svg version="1.1" id="Layer_1" xmlns="http://www.w3.org/2000/svg" xmlns:xlink="http://www.w3.org/1999/xlink" x="0px" y="0px"
	 viewBox="0 0 24 24" style="enable-background:new 0 0 24 24;" xml:space="preserve">
<style type="text/css">
	.st0{fill:#0E1116;}
	.st1{fill:#FFFFFF;}
</style>
<g id="surface6461462">
	<path class="st0" d="M12,24C5.4,24,0,18.6,0,12S5.4,0,12,0s12,5.4,12,12S18.6,24,12,24z"/>
	<path class="st1" d="M17.9,11v-0.5h-1l-0.4,0c-0.4,0-0.6,0.2-0.8,0.5v-0.5h-1.1v3.5h1.1V12c0-0.3,0.3-0.6,0.6-0.6h0.4v2.5h1.1V12
		c0-0.3,0.3-0.6,0.6-0.6h0.6v-1l-0.4,0C18.3,10.4,18,10.7,17.9,11z M9.8,10.5l-0.6,2l-0.6-2H7.4L8.7,14h1l1.2-3.5H9.8z M5.1,10.5
		v-0.2c0-0.2,0.2-0.4,0.4-0.4h0.7V9h-1C4.5,9,4,9.5,4,10.2v0.3H3.3v0.9H4V14h1.1v-2.6h1.1V14h1.1v-3.5H5.1z M12.5,10.5h-0.1
		c-0.9,0-1.7,0.8-1.7,1.7v0.2c0,0.9,0.8,1.7,1.7,1.7h0.3c0.6,0,1.2-0.4,1.4-1l-1-0.3c0,0-0.1,0.3-0.5,0.3c-0.5,0-0.7-0.3-0.8-0.6
		c0,0,0,0,0-0.1h2.4v-0.4C14.2,11.2,13.4,10.5,12.5,10.5z M11.8,11.8c0-0.3,0.3-0.6,0.6-0.6h0.1c0.3,0,0.6,0.2,0.6,0.6H11.8z
		 M20,12.7c-0.4,0-0.7,0.3-0.7,0.7c0,0.4,0.3,0.7,0.7,0.7c0.4,0,0.7-0.3,0.7-0.7C20.7,13,20.4,12.7,20,12.7z"/>
</g>
</svg>
