<?xml version="1.0" encoding="UTF-8"?><svg id="a" xmlns="http://www.w3.org/2000/svg" viewBox="0 0 23.94 7.04"><defs><style>.b{fill:#fff;}</style></defs><path class="b" d="M20.05,2.77v-.74h-2.01c-.53-.01-.89,.33-1.03,.74v-.74h-1.57V6.83h1.57v-2.61c0-.48,.39-.86,.86-.86h.61v3.48h1.57v-2.61c0-.48,.39-.86,.86-.86h.78v-1.31h-.61c-.53-.01-.89,.33-1.03,.74Zm-11.16-.64l-.84,2.77-.84-2.77h-1.57l1.71,4.79h1.41l1.7-4.79h-1.57Zm-6.41,0v-.32c0-.28,.23-.5,.51-.5h.99V0h-1.36C1.68,0,.92,.76,.92,1.71v.43H0v1.27H.92v3.52h1.57V3.41h1.5v3.52h1.57V2.14H2.48Zm10.15-.06h-.19c-1.28,0-2.32,1.04-2.32,2.32v.26c0,1.28,1.04,2.32,2.32,2.32h.42c.88,0,1.63-.54,1.94-1.31l-1.38-.4s-.17,.47-.74,.47c-.65,0-1-.36-1.04-.76,0-.03,0-.06,0-.09h3.32v-.49c0-1.28-1.04-2.32-2.32-2.32Zm-1,1.89c.02-.43,.37-.77,.81-.77h.14c.44,0,.79,.34,.81,.77h-1.77Zm11.32,1.12c-.54,0-.97,.43-.97,.97s.43,.98,.97,.98,.98-.43,.98-.98-.44-.97-.98-.97Z"/></svg>
